<?xml version="1.0" encoding="utf-8" standalone="no"?>
<!DOCTYPE svg PUBLIC "-//W3C//DTD SVG 1.1//EN"
  "http://www.w3.org/Graphics/SVG/1.1/DTD/svg11.dtd">
<svg xmlns:xlink="http://www.w3.org/1999/xlink" width="795.6pt" height="457.92pt" viewBox="0 0 795.6 457.92" xmlns="http://www.w3.org/2000/svg" version="1.1">
 <metadata>
  <rdf:RDF xmlns:dc="http://purl.org/dc/elements/1.1/" xmlns:cc="http://creativecommons.org/ns#" xmlns:rdf="http://www.w3.org/1999/02/22-rdf-syntax-ns#">
   <cc:Work>
    <dc:type rdf:resource="http://purl.org/dc/dcmitype/StillImage"/>
    <dc:date>2026-01-02T06:38:26.693576</dc:date>
    <dc:format>image/svg+xml</dc:format>
    <dc:creator>
     <cc:Agent>
      <dc:title>Matplotlib v3.7.5, https://matplotlib.org/</dc:title>
     </cc:Agent>
    </dc:creator>
   </cc:Work>
  </rdf:RDF>
 </metadata>
 <defs>
  <style type="text/css">*{stroke-linejoin: round; stroke-linecap: butt}</style>
 </defs>
 <g id="figure_1">
  <g id="patch_1">
   <path d="M 0 457.92 
L 795.6 457.92 
L 795.6 0 
L 0 0 
z
" style="fill: #ffffff"/>
  </g>
  <g id="axes_1">
   <g id="patch_2">
    <path d="M 100.944 106.772189 
Q 100.944 118.079876 100.944 127.598709 
" clip-path="url(#p0c63dbd5fa)" style="fill: none; stroke: #2b2f36; stroke-width: 1.6; stroke-linecap: round"/>
    <path d="M 103.744 121.998709 
L 100.944 127.598709 
L 98.144 121.998709 
z
" clip-path="url(#p0c63dbd5fa)" style="fill: #2b2f36; stroke: #2b2f36; stroke-width: 1.6; stroke-linecap: round"/>
   </g>
   <g id="patch_3">
    <path d="M 68.1336 188.15616 
L 255.6216 188.15616 
Q 279.0576 188.15616 279.0576 174.85056 
L 279.0576 134.93376 
Q 279.0576 121.62816 255.6216 121.62816 
L 68.1336 121.62816 
Q 44.6976 121.62816 44.6976 134.93376 
L 44.6976 174.85056 
Q 44.6976 188.15616 68.1336 188.15616 
z
" clip-path="url(#p0c63dbd5fa)" style="fill-opacity: 0.08"/>
   </g>
   <g id="patch_4">
    <path d="M 155.628 177.734306 
Q 155.628 193.477357 155.628 207.431553 
" clip-path="url(#p0c63dbd5fa)" style="fill: none; stroke: #2b2f36; stroke-width: 1.6; stroke-linecap: round"/>
    <path d="M 158.428 201.831553 
L 155.628 207.431553 
L 152.828 201.831553 
z
" clip-path="url(#p0c63dbd5fa)" style="fill: #2b2f36; stroke: #2b2f36; stroke-width: 1.6; stroke-linecap: round"/>
   </g>
   <g id="patch_5">
    <path d="M 333.30618 146.9088 
Q 296.246331 146.9088 260.975336 146.9088 
" clip-path="url(#p0c63dbd5fa)" style="fill: none; stroke: #2b2f36; stroke-width: 1.6; stroke-linecap: round"/>
    <path d="M 266.175336 149.5088 
L 260.975336 146.9088 
L 266.175336 144.3088 
z
" clip-path="url(#p0c63dbd5fa)" style="fill: #2b2f36; stroke: #2b2f36; stroke-width: 1.6; stroke-linecap: round"/>
   </g>
   <g id="patch_6">
    <path d="M 491.544 106.772189 
Q 491.544 118.079876 491.544 127.598709 
" clip-path="url(#p0c63dbd5fa)" style="fill: none; stroke: #2b2f36; stroke-width: 1.6; stroke-linecap: round"/>
    <path d="M 494.344 121.998709 
L 491.544 127.598709 
L 488.744 121.998709 
z
" clip-path="url(#p0c63dbd5fa)" style="fill: #2b2f36; stroke: #2b2f36; stroke-width: 1.6; stroke-linecap: round"/>
   </g>
   <g id="patch_7">
    <path d="M 458.7336 188.15616 
L 646.2216 188.15616 
Q 669.6576 188.15616 669.6576 174.85056 
L 669.6576 134.93376 
Q 669.6576 121.62816 646.2216 121.62816 
L 458.7336 121.62816 
Q 435.2976 121.62816 435.2976 134.93376 
L 435.2976 174.85056 
Q 435.2976 188.15616 458.7336 188.15616 
z
" clip-path="url(#p0c63dbd5fa)" style="fill-opacity: 0.08"/>
   </g>
   <g id="patch_8">
    <path d="M 546.228 177.734306 
Q 546.228 193.477357 546.228 207.431553 
" clip-path="url(#p0c63dbd5fa)" style="fill: none; stroke: #2b2f36; stroke-width: 1.6; stroke-linecap: round"/>
    <path d="M 549.028 201.831553 
L 546.228 207.431553 
L 543.428 201.831553 
z
" clip-path="url(#p0c63dbd5fa)" style="fill: #2b2f36; stroke: #2b2f36; stroke-width: 1.6; stroke-linecap: round"/>
   </g>
   <g id="patch_9">
    <path d="M 546.228 248.701296 
Q 546.228 257.786676 546.228 265.083202 
" clip-path="url(#p0c63dbd5fa)" style="fill: none; stroke: #2b2f36; stroke-width: 1.6; stroke-linecap: round"/>
    <path d="M 549.028 259.483202 
L 546.228 265.083202 
L 543.428 259.483202 
z
" clip-path="url(#p0c63dbd5fa)" style="fill: #2b2f36; stroke: #2b2f36; stroke-width: 1.6; stroke-linecap: round"/>
   </g>
   <g id="patch_10">
    <path d="M 443.1096 365.56416 
L 739.9656 365.56416 
Q 763.4016 365.56416 763.4016 352.25856 
L 763.4016 272.42496 
Q 763.4016 259.11936 739.9656 259.11936 
L 443.1096 259.11936 
Q 419.6736 259.11936 419.6736 272.42496 
L 419.6736 352.25856 
Q 419.6736 365.56416 443.1096 365.56416 
z
" clip-path="url(#p0c63dbd5fa)" style="fill-opacity: 0.08"/>
   </g>
   <g id="patch_11">
    <path d="M 546.228 270.874589 
Q 546.228 275.527742 546.228 278.392041 
" clip-path="url(#p0c63dbd5fa)" style="fill: none; stroke: #2b2f36; stroke-width: 1.6; stroke-linecap: round"/>
    <path d="M 548.828 273.192041 
L 546.228 278.392041 
L 543.628 273.192041 
z
" clip-path="url(#p0c63dbd5fa)" style="fill: #2b2f36; stroke: #2b2f36; stroke-width: 1.6; stroke-linecap: round"/>
   </g>
   <g id="patch_12">
    <path d="M 493.543131 104.7744 
Q 612.630922 104.7744 729.929858 104.7744 
" clip-path="url(#p0c63dbd5fa)" style="fill: none; stroke: #2b2f36; stroke-width: 1.6; stroke-linecap: round"/>
    <path d="M 724.729858 102.1744 
L 729.929858 104.7744 
L 724.729858 107.3744 
z
" clip-path="url(#p0c63dbd5fa)" style="fill: #2b2f36; stroke: #2b2f36; stroke-width: 1.6; stroke-linecap: round"/>
   </g>
   <g id="patch_13">
    <path d="M 733.716 106.776114 
Q 733.716 206.784572 733.716 305.004176 
" clip-path="url(#p0c63dbd5fa)" style="fill: none; stroke: #2b2f36; stroke-width: 1.6; stroke-linecap: round"/>
    <path d="M 736.316 299.804176 
L 733.716 305.004176 
L 731.116 299.804176 
z
" clip-path="url(#p0c63dbd5fa)" style="fill: #2b2f36; stroke: #2b2f36; stroke-width: 1.6; stroke-linecap: round"/>
   </g>
   <g id="patch_14">
    <path d="M 731.713412 308.7936 
Q 729.808617 308.7936 729.692676 308.7936 
" clip-path="url(#p0c63dbd5fa)" style="fill: none; stroke: #2b2f36; stroke-width: 1.6; stroke-linecap: round"/>
    <path d="M 734.892676 311.3936 
L 729.692676 308.7936 
L 734.892676 306.1936 
z
" clip-path="url(#p0c63dbd5fa)" style="fill: #2b2f36; stroke: #2b2f36; stroke-width: 1.6; stroke-linecap: round"/>
   </g>
   <g id="patch_15">
    <path d="M 585.288 355.143389 
Q 585.288 366.451076 585.288 375.969909 
" clip-path="url(#p0c63dbd5fa)" style="fill: none; stroke: #2b2f36; stroke-width: 1.6; stroke-linecap: round"/>
    <path d="M 588.088 370.369909 
L 585.288 375.969909 
L 582.488 370.369909 
z
" clip-path="url(#p0c63dbd5fa)" style="fill: #2b2f36; stroke: #2b2f36; stroke-width: 1.6; stroke-linecap: round"/>
   </g>
   <g id="line2d_1">
    <path d="M 39.75 437.4144 
L 39.75 20.5056 
" clip-path="url(#p0c63dbd5fa)" style="fill: none; stroke: #000000; stroke-opacity: 0.03; stroke-width: 0.5; stroke-linecap: square"/>
   </g>
   <g id="line2d_2">
    <path d="M 72.3 437.4144 
L 72.3 20.5056 
" clip-path="url(#p0c63dbd5fa)" style="fill: none; stroke: #000000; stroke-opacity: 0.03; stroke-width: 0.5; stroke-linecap: square"/>
   </g>
   <g id="line2d_3">
    <path d="M 104.85 437.4144 
L 104.85 20.5056 
" clip-path="url(#p0c63dbd5fa)" style="fill: none; stroke: #000000; stroke-opacity: 0.03; stroke-width: 0.5; stroke-linecap: square"/>
   </g>
   <g id="line2d_4">
    <path d="M 137.4 437.4144 
L 137.4 20.5056 
" clip-path="url(#p0c63dbd5fa)" style="fill: none; stroke: #000000; stroke-opacity: 0.03; stroke-width: 0.5; stroke-linecap: square"/>
   </g>
   <g id="line2d_5">
    <path d="M 169.95 437.4144 
L 169.95 20.5056 
" clip-path="url(#p0c63dbd5fa)" style="fill: none; stroke: #000000; stroke-opacity: 0.03; stroke-width: 0.5; stroke-linecap: square"/>
   </g>
   <g id="line2d_6">
    <path d="M 202.5 437.4144 
L 202.5 20.5056 
" clip-path="url(#p0c63dbd5fa)" style="fill: none; stroke: #000000; stroke-opacity: 0.03; stroke-width: 0.5; stroke-linecap: square"/>
   </g>
   <g id="line2d_7">
    <path d="M 235.05 437.4144 
L 235.05 20.5056 
" clip-path="url(#p0c63dbd5fa)" style="fill: none; stroke: #000000; stroke-opacity: 0.03; stroke-width: 0.5; stroke-linecap: square"/>
   </g>
   <g id="line2d_8">
    <path d="M 267.6 437.4144 
L 267.6 20.5056 
" clip-path="url(#p0c63dbd5fa)" style="fill: none; stroke: #000000; stroke-opacity: 0.03; stroke-width: 0.5; stroke-linecap: square"/>
   </g>
   <g id="line2d_9">
    <path d="M 300.15 437.4144 
L 300.15 20.5056 
" clip-path="url(#p0c63dbd5fa)" style="fill: none; stroke: #000000; stroke-opacity: 0.03; stroke-width: 0.5; stroke-linecap: square"/>
   </g>
   <g id="line2d_10">
    <path d="M 332.7 437.4144 
L 332.7 20.5056 
" clip-path="url(#p0c63dbd5fa)" style="fill: none; stroke: #000000; stroke-opacity: 0.03; stroke-width: 0.5; stroke-linecap: square"/>
   </g>
   <g id="line2d_11">
    <path d="M 365.25 437.4144 
L 365.25 20.5056 
" clip-path="url(#p0c63dbd5fa)" style="fill: none; stroke: #000000; stroke-opacity: 0.03; stroke-width: 0.5; stroke-linecap: square"/>
   </g>
   <g id="line2d_12">
    <path d="M 397.8 437.4144 
L 397.8 20.5056 
" clip-path="url(#p0c63dbd5fa)" style="fill: none; stroke: #000000; stroke-opacity: 0.03; stroke-width: 0.5; stroke-linecap: square"/>
   </g>
   <g id="line2d_13">
    <path d="M 430.35 437.4144 
L 430.35 20.5056 
" clip-path="url(#p0c63dbd5fa)" style="fill: none; stroke: #000000; stroke-opacity: 0.03; stroke-width: 0.5; stroke-linecap: square"/>
   </g>
   <g id="line2d_14">
    <path d="M 462.9 437.4144 
L 462.9 20.5056 
" clip-path="url(#p0c63dbd5fa)" style="fill: none; stroke: #000000; stroke-opacity: 0.03; stroke-width: 0.5; stroke-linecap: square"/>
   </g>
   <g id="line2d_15">
    <path d="M 495.45 437.4144 
L 495.45 20.5056 
" clip-path="url(#p0c63dbd5fa)" style="fill: none; stroke: #000000; stroke-opacity: 0.03; stroke-width: 0.5; stroke-linecap: square"/>
   </g>
   <g id="line2d_16">
    <path d="M 528 437.4144 
L 528 20.5056 
" clip-path="url(#p0c63dbd5fa)" style="fill: none; stroke: #000000; stroke-opacity: 0.03; stroke-width: 0.5; stroke-linecap: square"/>
   </g>
   <g id="line2d_17">
    <path d="M 560.55 437.4144 
L 560.55 20.5056 
" clip-path="url(#p0c63dbd5fa)" style="fill: none; stroke: #000000; stroke-opacity: 0.03; stroke-width: 0.5; stroke-linecap: square"/>
   </g>
   <g id="line2d_18">
    <path d="M 593.1 437.4144 
L 593.1 20.5056 
" clip-path="url(#p0c63dbd5fa)" style="fill: none; stroke: #000000; stroke-opacity: 0.03; stroke-width: 0.5; stroke-linecap: square"/>
   </g>
   <g id="line2d_19">
    <path d="M 625.65 437.4144 
L 625.65 20.5056 
" clip-path="url(#p0c63dbd5fa)" style="fill: none; stroke: #000000; stroke-opacity: 0.03; stroke-width: 0.5; stroke-linecap: square"/>
   </g>
   <g id="line2d_20">
    <path d="M 658.2 437.4144 
L 658.2 20.5056 
" clip-path="url(#p0c63dbd5fa)" style="fill: none; stroke: #000000; stroke-opacity: 0.03; stroke-width: 0.5; stroke-linecap: square"/>
   </g>
   <g id="line2d_21">
    <path d="M 690.75 437.4144 
L 690.75 20.5056 
" clip-path="url(#p0c63dbd5fa)" style="fill: none; stroke: #000000; stroke-opacity: 0.03; stroke-width: 0.5; stroke-linecap: square"/>
   </g>
   <g id="line2d_22">
    <path d="M 723.3 437.4144 
L 723.3 20.5056 
" clip-path="url(#p0c63dbd5fa)" style="fill: none; stroke: #000000; stroke-opacity: 0.03; stroke-width: 0.5; stroke-linecap: square"/>
   </g>
   <g id="line2d_23">
    <path d="M 755.85 437.4144 
L 755.85 20.5056 
" clip-path="url(#p0c63dbd5fa)" style="fill: none; stroke: #000000; stroke-opacity: 0.03; stroke-width: 0.5; stroke-linecap: square"/>
   </g>
   <g id="line2d_24">
    <path d="M 30.636 426.08 
L 764.964 426.08 
" clip-path="url(#p0c63dbd5fa)" style="fill: none; stroke: #000000; stroke-opacity: 0.03; stroke-width: 0.5; stroke-linecap: square"/>
   </g>
   <g id="line2d_25">
    <path d="M 30.636 401.44 
L 764.964 401.44 
" clip-path="url(#p0c63dbd5fa)" style="fill: none; stroke: #000000; stroke-opacity: 0.03; stroke-width: 0.5; stroke-linecap: square"/>
   </g>
   <g id="line2d_26">
    <path d="M 30.636 376.8 
L 764.964 376.8 
" clip-path="url(#p0c63dbd5fa)" style="fill: none; stroke: #000000; stroke-opacity: 0.03; stroke-width: 0.5; stroke-linecap: square"/>
   </g>
   <g id="line2d_27">
    <path d="M 30.636 352.16 
L 764.964 352.16 
" clip-path="url(#p0c63dbd5fa)" style="fill: none; stroke: #000000; stroke-opacity: 0.03; stroke-width: 0.5; stroke-linecap: square"/>
   </g>
   <g id="line2d_28">
    <path d="M 30.636 327.52 
L 764.964 327.52 
" clip-path="url(#p0c63dbd5fa)" style="fill: none; stroke: #000000; stroke-opacity: 0.03; stroke-width: 0.5; stroke-linecap: square"/>
   </g>
   <g id="line2d_29">
    <path d="M 30.636 302.88 
L 764.964 302.88 
" clip-path="url(#p0c63dbd5fa)" style="fill: none; stroke: #000000; stroke-opacity: 0.03; stroke-width: 0.5; stroke-linecap: square"/>
   </g>
   <g id="line2d_30">
    <path d="M 30.636 278.24 
L 764.964 278.24 
" clip-path="url(#p0c63dbd5fa)" style="fill: none; stroke: #000000; stroke-opacity: 0.03; stroke-width: 0.5; stroke-linecap: square"/>
   </g>
   <g id="line2d_31">
    <path d="M 30.636 253.6 
L 764.964 253.6 
" clip-path="url(#p0c63dbd5fa)" style="fill: none; stroke: #000000; stroke-opacity: 0.03; stroke-width: 0.5; stroke-linecap: square"/>
   </g>
   <g id="line2d_32">
    <path d="M 30.636 228.96 
L 764.964 228.96 
" clip-path="url(#p0c63dbd5fa)" style="fill: none; stroke: #000000; stroke-opacity: 0.03; stroke-width: 0.5; stroke-linecap: square"/>
   </g>
   <g id="line2d_33">
    <path d="M 30.636 204.32 
L 764.964 204.32 
" clip-path="url(#p0c63dbd5fa)" style="fill: none; stroke: #000000; stroke-opacity: 0.03; stroke-width: 0.5; stroke-linecap: square"/>
   </g>
   <g id="line2d_34">
    <path d="M 30.636 179.68 
L 764.964 179.68 
" clip-path="url(#p0c63dbd5fa)" style="fill: none; stroke: #000000; stroke-opacity: 0.03; stroke-width: 0.5; stroke-linecap: square"/>
   </g>
   <g id="line2d_35">
    <path d="M 30.636 155.04 
L 764.964 155.04 
" clip-path="url(#p0c63dbd5fa)" style="fill: none; stroke: #000000; stroke-opacity: 0.03; stroke-width: 0.5; stroke-linecap: square"/>
   </g>
   <g id="line2d_36">
    <path d="M 30.636 130.4 
L 764.964 130.4 
" clip-path="url(#p0c63dbd5fa)" style="fill: none; stroke: #000000; stroke-opacity: 0.03; stroke-width: 0.5; stroke-linecap: square"/>
   </g>
   <g id="line2d_37">
    <path d="M 30.636 105.76 
L 764.964 105.76 
" clip-path="url(#p0c63dbd5fa)" style="fill: none; stroke: #000000; stroke-opacity: 0.03; stroke-width: 0.5; stroke-linecap: square"/>
   </g>
   <g id="line2d_38">
    <path d="M 30.636 81.12 
L 764.964 81.12 
" clip-path="url(#p0c63dbd5fa)" style="fill: none; stroke: #000000; stroke-opacity: 0.03; stroke-width: 0.5; stroke-linecap: square"/>
   </g>
   <g id="line2d_39">
    <path d="M 30.636 56.48 
L 764.964 56.48 
" clip-path="url(#p0c63dbd5fa)" style="fill: none; stroke: #000000; stroke-opacity: 0.03; stroke-width: 0.5; stroke-linecap: square"/>
   </g>
   <g id="line2d_40">
    <path d="M 30.636 31.84 
L 764.964 31.84 
" clip-path="url(#p0c63dbd5fa)" style="fill: none; stroke: #000000; stroke-opacity: 0.03; stroke-width: 0.5; stroke-linecap: square"/>
   </g>
   <g id="line2d_41">
    <path d="M 397.8 415.2384 
L 397.8 42.6816 
" clip-path="url(#p0c63dbd5fa)" style="fill: none; stroke-dasharray: 3.7,1.6; stroke-dashoffset: 0; stroke: #000000; stroke-opacity: 0.25"/>
   </g>
   <g id="patch_16">
    <path d="M 61.884 184.608 
L 249.372 184.608 
Q 272.808 184.608 272.808 171.3024 
L 272.808 131.3856 
Q 272.808 118.08 249.372 118.08 
L 61.884 118.08 
Q 38.448 118.08 38.448 131.3856 
L 38.448 171.3024 
Q 38.448 184.608 61.884 184.608 
z
" clip-path="url(#p0c63dbd5fa)" style="fill: #f7f8fa; stroke-dasharray: 9.6,6.4; stroke-dashoffset: 0; stroke: #2b2f36; stroke-width: 1.6; stroke-linejoin: miter"/>
   </g>
   <g id="patch_17">
    <path d="M 452.484 184.608 
L 639.972 184.608 
Q 663.408 184.608 663.408 171.3024 
L 663.408 131.3856 
Q 663.408 118.08 639.972 118.08 
L 452.484 118.08 
Q 429.048 118.08 429.048 131.3856 
L 429.048 171.3024 
Q 429.048 184.608 452.484 184.608 
z
" clip-path="url(#p0c63dbd5fa)" style="fill: #f7f8fa; stroke-dasharray: 9.6,6.4; stroke-dashoffset: 0; stroke: #2b2f36; stroke-width: 1.6; stroke-linejoin: miter"/>
   </g>
   <g id="patch_18">
    <path d="M 436.86 362.016 
L 733.716 362.016 
Q 757.152 362.016 757.152 348.7104 
L 757.152 268.8768 
Q 757.152 255.5712 733.716 255.5712 
L 436.86 255.5712 
Q 413.424 255.5712 413.424 268.8768 
L 413.424 348.7104 
Q 413.424 362.016 436.86 362.016 
z
" clip-path="url(#p0c63dbd5fa)" style="fill: #f7f8fa; stroke-dasharray: 9.6,6.4; stroke-dashoffset: 0; stroke: #2b2f36; stroke-width: 1.6; stroke-linejoin: miter"/>
   </g>
   <g id="text_1">
    <!-- ORIGINAL PAPER -->
    <g style="fill: #111318" transform="translate(54.072 42.6614) scale(0.16 -0.16)">
     <defs>
      <path id="DejaVuSans-Bold-4f" d="M 2719 3878 
Q 2169 3878 1866 3472 
Q 1563 3066 1563 2328 
Q 1563 1594 1866 1187 
Q 2169 781 2719 781 
Q 3272 781 3575 1187 
Q 3878 1594 3878 2328 
Q 3878 3066 3575 3472 
Q 3272 3878 2719 3878 
z
M 2719 4750 
Q 3844 4750 4481 4106 
Q 5119 3463 5119 2328 
Q 5119 1197 4481 553 
Q 3844 -91 2719 -91 
Q 1597 -91 958 553 
Q 319 1197 319 2328 
Q 319 3463 958 4106 
Q 1597 4750 2719 4750 
z
" transform="scale(0.015625)"/>
      <path id="DejaVuSans-Bold-52" d="M 2297 2597 
Q 2675 2597 2839 2737 
Q 3003 2878 3003 3200 
Q 3003 3519 2839 3656 
Q 2675 3794 2297 3794 
L 1791 3794 
L 1791 2597 
L 2297 2597 
z
M 1791 1766 
L 1791 0 
L 588 0 
L 588 4666 
L 2425 4666 
Q 3347 4666 3776 4356 
Q 4206 4047 4206 3378 
Q 4206 2916 3982 2619 
Q 3759 2322 3309 2181 
Q 3556 2125 3751 1926 
Q 3947 1728 4147 1325 
L 4800 0 
L 3519 0 
L 2950 1159 
Q 2778 1509 2601 1637 
Q 2425 1766 2131 1766 
L 1791 1766 
z
" transform="scale(0.015625)"/>
      <path id="DejaVuSans-Bold-49" d="M 588 4666 
L 1791 4666 
L 1791 0 
L 588 0 
L 588 4666 
z
" transform="scale(0.015625)"/>
      <path id="DejaVuSans-Bold-47" d="M 4781 347 
Q 4331 128 3847 18 
Q 3363 -91 2847 -91 
Q 1681 -91 1000 561 
Q 319 1213 319 2328 
Q 319 3456 1012 4103 
Q 1706 4750 2913 4750 
Q 3378 4750 3804 4662 
Q 4231 4575 4609 4403 
L 4609 3438 
Q 4219 3659 3833 3768 
Q 3447 3878 3059 3878 
Q 2341 3878 1952 3476 
Q 1563 3075 1563 2328 
Q 1563 1588 1938 1184 
Q 2313 781 3003 781 
Q 3191 781 3352 804 
Q 3513 828 3641 878 
L 3641 1784 
L 2906 1784 
L 2906 2591 
L 4781 2591 
L 4781 347 
z
" transform="scale(0.015625)"/>
      <path id="DejaVuSans-Bold-4e" d="M 588 4666 
L 1931 4666 
L 3628 1466 
L 3628 4666 
L 4769 4666 
L 4769 0 
L 3425 0 
L 1728 3200 
L 1728 0 
L 588 0 
L 588 4666 
z
" transform="scale(0.015625)"/>
      <path id="DejaVuSans-Bold-41" d="M 3419 850 
L 1538 850 
L 1241 0 
L 31 0 
L 1759 4666 
L 3194 4666 
L 4922 0 
L 3713 0 
L 3419 850 
z
M 1838 1716 
L 3116 1716 
L 2478 3572 
L 1838 1716 
z
" transform="scale(0.015625)"/>
      <path id="DejaVuSans-Bold-4c" d="M 588 4666 
L 1791 4666 
L 1791 909 
L 3903 909 
L 3903 0 
L 588 0 
L 588 4666 
z
" transform="scale(0.015625)"/>
      <path id="DejaVuSans-Bold-20" transform="scale(0.015625)"/>
      <path id="DejaVuSans-Bold-50" d="M 588 4666 
L 2584 4666 
Q 3475 4666 3951 4270 
Q 4428 3875 4428 3144 
Q 4428 2409 3951 2014 
Q 3475 1619 2584 1619 
L 1791 1619 
L 1791 0 
L 588 0 
L 588 4666 
z
M 1791 3794 
L 1791 2491 
L 2456 2491 
Q 2806 2491 2997 2661 
Q 3188 2831 3188 3144 
Q 3188 3456 2997 3625 
Q 2806 3794 2456 3794 
L 1791 3794 
z
" transform="scale(0.015625)"/>
      <path id="DejaVuSans-Bold-45" d="M 588 4666 
L 3834 4666 
L 3834 3756 
L 1791 3756 
L 1791 2888 
L 3713 2888 
L 3713 1978 
L 1791 1978 
L 1791 909 
L 3903 909 
L 3903 0 
L 588 0 
L 588 4666 
z
" transform="scale(0.015625)"/>
     </defs>
     <use xlink:href="#DejaVuSans-Bold-4f"/>
     <use xlink:href="#DejaVuSans-Bold-52" x="85.009766"/>
     <use xlink:href="#DejaVuSans-Bold-49" x="162.011719"/>
     <use xlink:href="#DejaVuSans-Bold-47" x="199.21875"/>
     <use xlink:href="#DejaVuSans-Bold-49" x="281.298828"/>
     <use xlink:href="#DejaVuSans-Bold-4e" x="318.505859"/>
     <use xlink:href="#DejaVuSans-Bold-41" x="402.197266"/>
     <use xlink:href="#DejaVuSans-Bold-4c" x="479.589844"/>
     <use xlink:href="#DejaVuSans-Bold-20" x="543.310547"/>
     <use xlink:href="#DejaVuSans-Bold-50" x="578.125"/>
     <use xlink:href="#DejaVuSans-Bold-41" x="642.291016"/>
     <use xlink:href="#DejaVuSans-Bold-50" x="719.683594"/>
     <use xlink:href="#DejaVuSans-Bold-45" x="792.974609"/>
     <use xlink:href="#DejaVuSans-Bold-52" x="861.285156"/>
    </g>
   </g>
   <g id="text_2">
    <!-- (Single-Pass) -->
    <g style="fill: #111318" transform="translate(54.072 59.574387) scale(0.13 -0.13)">
     <defs>
      <path id="DejaVuSans-28" d="M 1984 4856 
Q 1566 4138 1362 3434 
Q 1159 2731 1159 2009 
Q 1159 1288 1364 580 
Q 1569 -128 1984 -844 
L 1484 -844 
Q 1016 -109 783 600 
Q 550 1309 550 2009 
Q 550 2706 781 3412 
Q 1013 4119 1484 4856 
L 1984 4856 
z
" transform="scale(0.015625)"/>
      <path id="DejaVuSans-53" d="M 3425 4513 
L 3425 3897 
Q 3066 4069 2747 4153 
Q 2428 4238 2131 4238 
Q 1616 4238 1336 4038 
Q 1056 3838 1056 3469 
Q 1056 3159 1242 3001 
Q 1428 2844 1947 2747 
L 2328 2669 
Q 3034 2534 3370 2195 
Q 3706 1856 3706 1288 
Q 3706 609 3251 259 
Q 2797 -91 1919 -91 
Q 1588 -91 1214 -16 
Q 841 59 441 206 
L 441 856 
Q 825 641 1194 531 
Q 1563 422 1919 422 
Q 2459 422 2753 634 
Q 3047 847 3047 1241 
Q 3047 1584 2836 1778 
Q 2625 1972 2144 2069 
L 1759 2144 
Q 1053 2284 737 2584 
Q 422 2884 422 3419 
Q 422 4038 858 4394 
Q 1294 4750 2059 4750 
Q 2388 4750 2728 4690 
Q 3069 4631 3425 4513 
z
" transform="scale(0.015625)"/>
      <path id="DejaVuSans-69" d="M 603 3500 
L 1178 3500 
L 1178 0 
L 603 0 
L 603 3500 
z
M 603 4863 
L 1178 4863 
L 1178 4134 
L 603 4134 
L 603 4863 
z
" transform="scale(0.015625)"/>
      <path id="DejaVuSans-6e" d="M 3513 2113 
L 3513 0 
L 2938 0 
L 2938 2094 
Q 2938 2591 2744 2837 
Q 2550 3084 2163 3084 
Q 1697 3084 1428 2787 
Q 1159 2491 1159 1978 
L 1159 0 
L 581 0 
L 581 3500 
L 1159 3500 
L 1159 2956 
Q 1366 3272 1645 3428 
Q 1925 3584 2291 3584 
Q 2894 3584 3203 3211 
Q 3513 2838 3513 2113 
z
" transform="scale(0.015625)"/>
      <path id="DejaVuSans-67" d="M 2906 1791 
Q 2906 2416 2648 2759 
Q 2391 3103 1925 3103 
Q 1463 3103 1205 2759 
Q 947 2416 947 1791 
Q 947 1169 1205 825 
Q 1463 481 1925 481 
Q 2391 481 2648 825 
Q 2906 1169 2906 1791 
z
M 3481 434 
Q 3481 -459 3084 -895 
Q 2688 -1331 1869 -1331 
Q 1566 -1331 1297 -1286 
Q 1028 -1241 775 -1147 
L 775 -588 
Q 1028 -725 1275 -790 
Q 1522 -856 1778 -856 
Q 2344 -856 2625 -561 
Q 2906 -266 2906 331 
L 2906 616 
Q 2728 306 2450 153 
Q 2172 0 1784 0 
Q 1141 0 747 490 
Q 353 981 353 1791 
Q 353 2603 747 3093 
Q 1141 3584 1784 3584 
Q 2172 3584 2450 3431 
Q 2728 3278 2906 2969 
L 2906 3500 
L 3481 3500 
L 3481 434 
z
" transform="scale(0.015625)"/>
      <path id="DejaVuSans-6c" d="M 603 4863 
L 1178 4863 
L 1178 0 
L 603 0 
L 603 4863 
z
" transform="scale(0.015625)"/>
      <path id="DejaVuSans-65" d="M 3597 1894 
L 3597 1613 
L 953 1613 
Q 991 1019 1311 708 
Q 1631 397 2203 397 
Q 2534 397 2845 478 
Q 3156 559 3463 722 
L 3463 178 
Q 3153 47 2828 -22 
Q 2503 -91 2169 -91 
Q 1331 -91 842 396 
Q 353 884 353 1716 
Q 353 2575 817 3079 
Q 1281 3584 2069 3584 
Q 2775 3584 3186 3129 
Q 3597 2675 3597 1894 
z
M 3022 2063 
Q 3016 2534 2758 2815 
Q 2500 3097 2075 3097 
Q 1594 3097 1305 2825 
Q 1016 2553 972 2059 
L 3022 2063 
z
" transform="scale(0.015625)"/>
      <path id="DejaVuSans-2d" d="M 313 2009 
L 1997 2009 
L 1997 1497 
L 313 1497 
L 313 2009 
z
" transform="scale(0.015625)"/>
      <path id="DejaVuSans-50" d="M 1259 4147 
L 1259 2394 
L 2053 2394 
Q 2494 2394 2734 2622 
Q 2975 2850 2975 3272 
Q 2975 3691 2734 3919 
Q 2494 4147 2053 4147 
L 1259 4147 
z
M 628 4666 
L 2053 4666 
Q 2838 4666 3239 4311 
Q 3641 3956 3641 3272 
Q 3641 2581 3239 2228 
Q 2838 1875 2053 1875 
L 1259 1875 
L 1259 0 
L 628 0 
L 628 4666 
z
" transform="scale(0.015625)"/>
      <path id="DejaVuSans-61" d="M 2194 1759 
Q 1497 1759 1228 1600 
Q 959 1441 959 1056 
Q 959 750 1161 570 
Q 1363 391 1709 391 
Q 2188 391 2477 730 
Q 2766 1069 2766 1631 
L 2766 1759 
L 2194 1759 
z
M 3341 1997 
L 3341 0 
L 2766 0 
L 2766 531 
Q 2569 213 2275 61 
Q 1981 -91 1556 -91 
Q 1019 -91 701 211 
Q 384 513 384 1019 
Q 384 1609 779 1909 
Q 1175 2209 1959 2209 
L 2766 2209 
L 2766 2266 
Q 2766 2663 2505 2880 
Q 2244 3097 1772 3097 
Q 1472 3097 1187 3025 
Q 903 2953 641 2809 
L 641 3341 
Q 956 3463 1253 3523 
Q 1550 3584 1831 3584 
Q 2591 3584 2966 3190 
Q 3341 2797 3341 1997 
z
" transform="scale(0.015625)"/>
      <path id="DejaVuSans-73" d="M 2834 3397 
L 2834 2853 
Q 2591 2978 2328 3040 
Q 2066 3103 1784 3103 
Q 1356 3103 1142 2972 
Q 928 2841 928 2578 
Q 928 2378 1081 2264 
Q 1234 2150 1697 2047 
L 1894 2003 
Q 2506 1872 2764 1633 
Q 3022 1394 3022 966 
Q 3022 478 2636 193 
Q 2250 -91 1575 -91 
Q 1294 -91 989 -36 
Q 684 19 347 128 
L 347 722 
Q 666 556 975 473 
Q 1284 391 1588 391 
Q 1994 391 2212 530 
Q 2431 669 2431 922 
Q 2431 1156 2273 1281 
Q 2116 1406 1581 1522 
L 1381 1569 
Q 847 1681 609 1914 
Q 372 2147 372 2553 
Q 372 3047 722 3315 
Q 1072 3584 1716 3584 
Q 2034 3584 2315 3537 
Q 2597 3491 2834 3397 
z
" transform="scale(0.015625)"/>
      <path id="DejaVuSans-29" d="M 513 4856 
L 1013 4856 
Q 1481 4119 1714 3412 
Q 1947 2706 1947 2009 
Q 1947 1309 1714 600 
Q 1481 -109 1013 -844 
L 513 -844 
Q 928 -128 1133 580 
Q 1338 1288 1338 2009 
Q 1338 2731 1133 3434 
Q 928 4138 513 4856 
z
" transform="scale(0.015625)"/>
     </defs>
     <use xlink:href="#DejaVuSans-28"/>
     <use xlink:href="#DejaVuSans-53" x="39.013672"/>
     <use xlink:href="#DejaVuSans-69" x="102.490234"/>
     <use xlink:href="#DejaVuSans-6e" x="130.273438"/>
     <use xlink:href="#DejaVuSans-67" x="193.652344"/>
     <use xlink:href="#DejaVuSans-6c" x="257.128906"/>
     <use xlink:href="#DejaVuSans-65" x="284.912109"/>
     <use xlink:href="#DejaVuSans-2d" x="346.435547"/>
     <use xlink:href="#DejaVuSans-50" x="382.519531"/>
     <use xlink:href="#DejaVuSans-61" x="438.322266"/>
     <use xlink:href="#DejaVuSans-73" x="499.601562"/>
     <use xlink:href="#DejaVuSans-73" x="551.701172"/>
     <use xlink:href="#DejaVuSans-29" x="603.800781"/>
    </g>
   </g>
   <g id="text_3">
    <!-- PROPOSED ENHANCEMENT -->
    <g style="fill: #111318" transform="translate(444.672 42.6614) scale(0.16 -0.16)">
     <defs>
      <path id="DejaVuSans-Bold-53" d="M 3834 4519 
L 3834 3531 
Q 3450 3703 3084 3790 
Q 2719 3878 2394 3878 
Q 1963 3878 1756 3759 
Q 1550 3641 1550 3391 
Q 1550 3203 1689 3098 
Q 1828 2994 2194 2919 
L 2706 2816 
Q 3484 2659 3812 2340 
Q 4141 2022 4141 1434 
Q 4141 663 3683 286 
Q 3225 -91 2284 -91 
Q 1841 -91 1394 -6 
Q 947 78 500 244 
L 500 1259 
Q 947 1022 1364 901 
Q 1781 781 2169 781 
Q 2563 781 2772 912 
Q 2981 1044 2981 1288 
Q 2981 1506 2839 1625 
Q 2697 1744 2272 1838 
L 1806 1941 
Q 1106 2091 782 2419 
Q 459 2747 459 3303 
Q 459 4000 909 4375 
Q 1359 4750 2203 4750 
Q 2588 4750 2994 4692 
Q 3400 4634 3834 4519 
z
" transform="scale(0.015625)"/>
      <path id="DejaVuSans-Bold-44" d="M 1791 3756 
L 1791 909 
L 2222 909 
Q 2959 909 3348 1275 
Q 3738 1641 3738 2338 
Q 3738 3031 3350 3393 
Q 2963 3756 2222 3756 
L 1791 3756 
z
M 588 4666 
L 1856 4666 
Q 2919 4666 3439 4514 
Q 3959 4363 4331 4000 
Q 4659 3684 4818 3271 
Q 4978 2859 4978 2338 
Q 4978 1809 4818 1395 
Q 4659 981 4331 666 
Q 3956 303 3431 151 
Q 2906 0 1856 0 
L 588 0 
L 588 4666 
z
" transform="scale(0.015625)"/>
      <path id="DejaVuSans-Bold-48" d="M 588 4666 
L 1791 4666 
L 1791 2888 
L 3566 2888 
L 3566 4666 
L 4769 4666 
L 4769 0 
L 3566 0 
L 3566 1978 
L 1791 1978 
L 1791 0 
L 588 0 
L 588 4666 
z
" transform="scale(0.015625)"/>
      <path id="DejaVuSans-Bold-43" d="M 4288 256 
Q 3956 84 3597 -3 
Q 3238 -91 2847 -91 
Q 1681 -91 1000 561 
Q 319 1213 319 2328 
Q 319 3447 1000 4098 
Q 1681 4750 2847 4750 
Q 3238 4750 3597 4662 
Q 3956 4575 4288 4403 
L 4288 3438 
Q 3953 3666 3628 3772 
Q 3303 3878 2944 3878 
Q 2300 3878 1931 3465 
Q 1563 3053 1563 2328 
Q 1563 1606 1931 1193 
Q 2300 781 2944 781 
Q 3303 781 3628 887 
Q 3953 994 4288 1222 
L 4288 256 
z
" transform="scale(0.015625)"/>
      <path id="DejaVuSans-Bold-4d" d="M 588 4666 
L 2119 4666 
L 3181 2169 
L 4250 4666 
L 5778 4666 
L 5778 0 
L 4641 0 
L 4641 3413 
L 3566 897 
L 2803 897 
L 1728 3413 
L 1728 0 
L 588 0 
L 588 4666 
z
" transform="scale(0.015625)"/>
      <path id="DejaVuSans-Bold-54" d="M 31 4666 
L 4331 4666 
L 4331 3756 
L 2784 3756 
L 2784 0 
L 1581 0 
L 1581 3756 
L 31 3756 
L 31 4666 
z
" transform="scale(0.015625)"/>
     </defs>
     <use xlink:href="#DejaVuSans-Bold-50"/>
     <use xlink:href="#DejaVuSans-Bold-52" x="73.291016"/>
     <use xlink:href="#DejaVuSans-Bold-4f" x="150.292969"/>
     <use xlink:href="#DejaVuSans-Bold-50" x="235.302734"/>
     <use xlink:href="#DejaVuSans-Bold-4f" x="308.59375"/>
     <use xlink:href="#DejaVuSans-Bold-53" x="393.603516"/>
     <use xlink:href="#DejaVuSans-Bold-45" x="465.625"/>
     <use xlink:href="#DejaVuSans-Bold-44" x="533.935547"/>
     <use xlink:href="#DejaVuSans-Bold-20" x="616.943359"/>
     <use xlink:href="#DejaVuSans-Bold-45" x="651.757812"/>
     <use xlink:href="#DejaVuSans-Bold-4e" x="720.068359"/>
     <use xlink:href="#DejaVuSans-Bold-48" x="803.759766"/>
     <use xlink:href="#DejaVuSans-Bold-41" x="887.451172"/>
     <use xlink:href="#DejaVuSans-Bold-4e" x="964.84375"/>
     <use xlink:href="#DejaVuSans-Bold-43" x="1048.535156"/>
     <use xlink:href="#DejaVuSans-Bold-45" x="1121.923828"/>
     <use xlink:href="#DejaVuSans-Bold-4d" x="1190.234375"/>
     <use xlink:href="#DejaVuSans-Bold-45" x="1289.746094"/>
     <use xlink:href="#DejaVuSans-Bold-4e" x="1358.056641"/>
     <use xlink:href="#DejaVuSans-Bold-54" x="1441.748047"/>
    </g>
   </g>
   <g id="text_4">
    <!-- (Two-Stage) -->
    <g style="fill: #111318" transform="translate(444.672 59.574387) scale(0.13 -0.13)">
     <defs>
      <path id="DejaVuSans-54" d="M -19 4666 
L 3928 4666 
L 3928 4134 
L 2272 4134 
L 2272 0 
L 1638 0 
L 1638 4134 
L -19 4134 
L -19 4666 
z
" transform="scale(0.015625)"/>
      <path id="DejaVuSans-77" d="M 269 3500 
L 844 3500 
L 1563 769 
L 2278 3500 
L 2956 3500 
L 3675 769 
L 4391 3500 
L 4966 3500 
L 4050 0 
L 3372 0 
L 2619 2869 
L 1863 0 
L 1184 0 
L 269 3500 
z
" transform="scale(0.015625)"/>
      <path id="DejaVuSans-6f" d="M 1959 3097 
Q 1497 3097 1228 2736 
Q 959 2375 959 1747 
Q 959 1119 1226 758 
Q 1494 397 1959 397 
Q 2419 397 2687 759 
Q 2956 1122 2956 1747 
Q 2956 2369 2687 2733 
Q 2419 3097 1959 3097 
z
M 1959 3584 
Q 2709 3584 3137 3096 
Q 3566 2609 3566 1747 
Q 3566 888 3137 398 
Q 2709 -91 1959 -91 
Q 1206 -91 779 398 
Q 353 888 353 1747 
Q 353 2609 779 3096 
Q 1206 3584 1959 3584 
z
" transform="scale(0.015625)"/>
      <path id="DejaVuSans-74" d="M 1172 4494 
L 1172 3500 
L 2356 3500 
L 2356 3053 
L 1172 3053 
L 1172 1153 
Q 1172 725 1289 603 
Q 1406 481 1766 481 
L 2356 481 
L 2356 0 
L 1766 0 
Q 1100 0 847 248 
Q 594 497 594 1153 
L 594 3053 
L 172 3053 
L 172 3500 
L 594 3500 
L 594 4494 
L 1172 4494 
z
" transform="scale(0.015625)"/>
     </defs>
     <use xlink:href="#DejaVuSans-28"/>
     <use xlink:href="#DejaVuSans-54" x="39.013672"/>
     <use xlink:href="#DejaVuSans-77" x="83.597656"/>
     <use xlink:href="#DejaVuSans-6f" x="165.384766"/>
     <use xlink:href="#DejaVuSans-2d" x="228.441406"/>
     <use xlink:href="#DejaVuSans-53" x="264.525391"/>
     <use xlink:href="#DejaVuSans-74" x="328.001953"/>
     <use xlink:href="#DejaVuSans-61" x="367.210938"/>
     <use xlink:href="#DejaVuSans-67" x="428.490234"/>
     <use xlink:href="#DejaVuSans-65" x="491.966797"/>
     <use xlink:href="#DejaVuSans-29" x="553.490234"/>
    </g>
   </g>
   <g id="text_5">
    <!-- Image -->
    <g style="fill: #111318" transform="translate(77.508 99.491187) scale(0.13 -0.13)">
     <defs>
      <path id="DejaVuSans-49" d="M 628 4666 
L 1259 4666 
L 1259 0 
L 628 0 
L 628 4666 
z
" transform="scale(0.015625)"/>
      <path id="DejaVuSans-6d" d="M 3328 2828 
Q 3544 3216 3844 3400 
Q 4144 3584 4550 3584 
Q 5097 3584 5394 3201 
Q 5691 2819 5691 2113 
L 5691 0 
L 5113 0 
L 5113 2094 
Q 5113 2597 4934 2840 
Q 4756 3084 4391 3084 
Q 3944 3084 3684 2787 
Q 3425 2491 3425 1978 
L 3425 0 
L 2847 0 
L 2847 2094 
Q 2847 2600 2669 2842 
Q 2491 3084 2119 3084 
Q 1678 3084 1418 2786 
Q 1159 2488 1159 1978 
L 1159 0 
L 581 0 
L 581 3500 
L 1159 3500 
L 1159 2956 
Q 1356 3278 1631 3431 
Q 1906 3584 2284 3584 
Q 2666 3584 2933 3390 
Q 3200 3197 3328 2828 
z
" transform="scale(0.015625)"/>
     </defs>
     <use xlink:href="#DejaVuSans-49"/>
     <use xlink:href="#DejaVuSans-6d" x="29.492188"/>
     <use xlink:href="#DejaVuSans-61" x="126.904297"/>
     <use xlink:href="#DejaVuSans-67" x="188.183594"/>
     <use xlink:href="#DejaVuSans-65" x="251.660156"/>
    </g>
   </g>
   <g id="text_6">
    <!-- LU-Net -->
    <g style="fill: #111318" transform="translate(132.140812 147.368656) scale(0.14 -0.14)">
     <defs>
      <path id="DejaVuSans-4c" d="M 628 4666 
L 1259 4666 
L 1259 531 
L 3531 531 
L 3531 0 
L 628 0 
L 628 4666 
z
" transform="scale(0.015625)"/>
      <path id="DejaVuSans-55" d="M 556 4666 
L 1191 4666 
L 1191 1831 
Q 1191 1081 1462 751 
Q 1734 422 2344 422 
Q 2950 422 3222 751 
Q 3494 1081 3494 1831 
L 3494 4666 
L 4128 4666 
L 4128 1753 
Q 4128 841 3676 375 
Q 3225 -91 2344 -91 
Q 1459 -91 1007 375 
Q 556 841 556 1753 
L 556 4666 
z
" transform="scale(0.015625)"/>
      <path id="DejaVuSans-4e" d="M 628 4666 
L 1478 4666 
L 3547 763 
L 3547 4666 
L 4159 4666 
L 4159 0 
L 3309 0 
L 1241 3903 
L 1241 0 
L 628 0 
L 628 4666 
z
" transform="scale(0.015625)"/>
     </defs>
     <use xlink:href="#DejaVuSans-4c"/>
     <use xlink:href="#DejaVuSans-55" x="50.712891"/>
     <use xlink:href="#DejaVuSans-2d" x="123.90625"/>
     <use xlink:href="#DejaVuSans-4e" x="159.990234"/>
     <use xlink:href="#DejaVuSans-65" x="234.794922"/>
     <use xlink:href="#DejaVuSans-74" x="296.318359"/>
    </g>
    <!-- + RA -->
    <g style="fill: #111318" transform="translate(138.165187 163.045594) scale(0.14 -0.14)">
     <defs>
      <path id="DejaVuSans-2b" d="M 2944 4013 
L 2944 2272 
L 4684 2272 
L 4684 1741 
L 2944 1741 
L 2944 0 
L 2419 0 
L 2419 1741 
L 678 1741 
L 678 2272 
L 2419 2272 
L 2419 4013 
L 2944 4013 
z
" transform="scale(0.015625)"/>
      <path id="DejaVuSans-20" transform="scale(0.015625)"/>
      <path id="DejaVuSans-52" d="M 2841 2188 
Q 3044 2119 3236 1894 
Q 3428 1669 3622 1275 
L 4263 0 
L 3584 0 
L 2988 1197 
Q 2756 1666 2539 1819 
Q 2322 1972 1947 1972 
L 1259 1972 
L 1259 0 
L 628 0 
L 628 4666 
L 2053 4666 
Q 2853 4666 3247 4331 
Q 3641 3997 3641 3322 
Q 3641 2881 3436 2590 
Q 3231 2300 2841 2188 
z
M 1259 4147 
L 1259 2491 
L 2053 2491 
Q 2509 2491 2742 2702 
Q 2975 2913 2975 3322 
Q 2975 3731 2742 3939 
Q 2509 4147 2053 4147 
L 1259 4147 
z
" transform="scale(0.015625)"/>
      <path id="DejaVuSans-41" d="M 2188 4044 
L 1331 1722 
L 3047 1722 
L 2188 4044 
z
M 1831 4666 
L 2547 4666 
L 4325 0 
L 3669 0 
L 3244 1197 
L 1141 1197 
L 716 0 
L 50 0 
L 1831 4666 
z
" transform="scale(0.015625)"/>
     </defs>
     <use xlink:href="#DejaVuSans-2b"/>
     <use xlink:href="#DejaVuSans-20" x="83.789062"/>
     <use xlink:href="#DejaVuSans-52" x="115.576172"/>
     <use xlink:href="#DejaVuSans-41" x="181.058594"/>
    </g>
   </g>
   <g id="text_7">
    <!-- Segmentation -->
    <g style="fill: #111318" transform="translate(77.508 241.417587) scale(0.13 -0.13)">
     <use xlink:href="#DejaVuSans-53"/>
     <use xlink:href="#DejaVuSans-65" x="63.476562"/>
     <use xlink:href="#DejaVuSans-67" x="125"/>
     <use xlink:href="#DejaVuSans-6d" x="188.476562"/>
     <use xlink:href="#DejaVuSans-65" x="285.888672"/>
     <use xlink:href="#DejaVuSans-6e" x="347.412109"/>
     <use xlink:href="#DejaVuSans-74" x="410.791016"/>
     <use xlink:href="#DejaVuSans-61" x="450"/>
     <use xlink:href="#DejaVuSans-74" x="511.279297"/>
     <use xlink:href="#DejaVuSans-69" x="550.488281"/>
     <use xlink:href="#DejaVuSans-6f" x="578.271484"/>
     <use xlink:href="#DejaVuSans-6e" x="639.453125"/>
    </g>
   </g>
   <g id="text_8">
    <!-- (4.8 ms) -->
    <g style="fill: #111318" transform="translate(77.508 259.158387) scale(0.13 -0.13)">
     <defs>
      <path id="DejaVuSans-34" d="M 2419 4116 
L 825 1625 
L 2419 1625 
L 2419 4116 
z
M 2253 4666 
L 3047 4666 
L 3047 1625 
L 3713 1625 
L 3713 1100 
L 3047 1100 
L 3047 0 
L 2419 0 
L 2419 1100 
L 313 1100 
L 313 1709 
L 2253 4666 
z
" transform="scale(0.015625)"/>
      <path id="DejaVuSans-2e" d="M 684 794 
L 1344 794 
L 1344 0 
L 684 0 
L 684 794 
z
" transform="scale(0.015625)"/>
      <path id="DejaVuSans-38" d="M 2034 2216 
Q 1584 2216 1326 1975 
Q 1069 1734 1069 1313 
Q 1069 891 1326 650 
Q 1584 409 2034 409 
Q 2484 409 2743 651 
Q 3003 894 3003 1313 
Q 3003 1734 2745 1975 
Q 2488 2216 2034 2216 
z
M 1403 2484 
Q 997 2584 770 2862 
Q 544 3141 544 3541 
Q 544 4100 942 4425 
Q 1341 4750 2034 4750 
Q 2731 4750 3128 4425 
Q 3525 4100 3525 3541 
Q 3525 3141 3298 2862 
Q 3072 2584 2669 2484 
Q 3125 2378 3379 2068 
Q 3634 1759 3634 1313 
Q 3634 634 3220 271 
Q 2806 -91 2034 -91 
Q 1263 -91 848 271 
Q 434 634 434 1313 
Q 434 1759 690 2068 
Q 947 2378 1403 2484 
z
M 1172 3481 
Q 1172 3119 1398 2916 
Q 1625 2713 2034 2713 
Q 2441 2713 2670 2916 
Q 2900 3119 2900 3481 
Q 2900 3844 2670 4047 
Q 2441 4250 2034 4250 
Q 1625 4250 1398 4047 
Q 1172 3844 1172 3481 
z
" transform="scale(0.015625)"/>
     </defs>
     <use xlink:href="#DejaVuSans-28"/>
     <use xlink:href="#DejaVuSans-34" x="39.013672"/>
     <use xlink:href="#DejaVuSans-2e" x="102.636719"/>
     <use xlink:href="#DejaVuSans-38" x="134.423828"/>
     <use xlink:href="#DejaVuSans-20" x="198.046875"/>
     <use xlink:href="#DejaVuSans-6d" x="229.833984"/>
     <use xlink:href="#DejaVuSans-73" x="327.246094"/>
     <use xlink:href="#DejaVuSans-29" x="379.345703"/>
    </g>
   </g>
   <g id="text_9">
    <!-- output -->
    <g style="fill: #111318" transform="translate(272.808 143.785316) scale(0.11 -0.11)">
     <defs>
      <path id="DejaVuSans-75" d="M 544 1381 
L 544 3500 
L 1119 3500 
L 1119 1403 
Q 1119 906 1312 657 
Q 1506 409 1894 409 
Q 2359 409 2629 706 
Q 2900 1003 2900 1516 
L 2900 3500 
L 3475 3500 
L 3475 0 
L 2900 0 
L 2900 538 
Q 2691 219 2414 64 
Q 2138 -91 1772 -91 
Q 1169 -91 856 284 
Q 544 659 544 1381 
z
M 1991 3584 
L 1991 3584 
z
" transform="scale(0.015625)"/>
      <path id="DejaVuSans-70" d="M 1159 525 
L 1159 -1331 
L 581 -1331 
L 581 3500 
L 1159 3500 
L 1159 2969 
Q 1341 3281 1617 3432 
Q 1894 3584 2278 3584 
Q 2916 3584 3314 3078 
Q 3713 2572 3713 1747 
Q 3713 922 3314 415 
Q 2916 -91 2278 -91 
Q 1894 -91 1617 61 
Q 1341 213 1159 525 
z
M 3116 1747 
Q 3116 2381 2855 2742 
Q 2594 3103 2138 3103 
Q 1681 3103 1420 2742 
Q 1159 2381 1159 1747 
Q 1159 1113 1420 752 
Q 1681 391 2138 391 
Q 2594 391 2855 752 
Q 3116 1113 3116 1747 
z
" transform="scale(0.015625)"/>
     </defs>
     <use xlink:href="#DejaVuSans-6f"/>
     <use xlink:href="#DejaVuSans-75" x="61.181641"/>
     <use xlink:href="#DejaVuSans-74" x="124.560547"/>
     <use xlink:href="#DejaVuSans-70" x="163.769531"/>
     <use xlink:href="#DejaVuSans-75" x="227.246094"/>
     <use xlink:href="#DejaVuSans-74" x="290.625"/>
    </g>
    <!-- Mask -->
    <g style="fill: #111318" transform="translate(272.808 156.102909) scale(0.11 -0.11)">
     <defs>
      <path id="DejaVuSans-4d" d="M 628 4666 
L 1569 4666 
L 2759 1491 
L 3956 4666 
L 4897 4666 
L 4897 0 
L 4281 0 
L 4281 4097 
L 3078 897 
L 2444 897 
L 1241 4097 
L 1241 0 
L 628 0 
L 628 4666 
z
" transform="scale(0.015625)"/>
      <path id="DejaVuSans-6b" d="M 581 4863 
L 1159 4863 
L 1159 1991 
L 2875 3500 
L 3609 3500 
L 1753 1863 
L 3688 0 
L 2938 0 
L 1159 1709 
L 1159 0 
L 581 0 
L 581 4863 
z
" transform="scale(0.015625)"/>
     </defs>
     <use xlink:href="#DejaVuSans-4d"/>
     <use xlink:href="#DejaVuSans-61" x="86.279297"/>
     <use xlink:href="#DejaVuSans-73" x="147.558594"/>
     <use xlink:href="#DejaVuSans-6b" x="199.658203"/>
    </g>
   </g>
   <g id="text_10">
    <!-- Image -->
    <g style="fill: #111318" transform="translate(468.108 99.491187) scale(0.13 -0.13)">
     <use xlink:href="#DejaVuSans-49"/>
     <use xlink:href="#DejaVuSans-6d" x="29.492188"/>
     <use xlink:href="#DejaVuSans-61" x="126.904297"/>
     <use xlink:href="#DejaVuSans-67" x="188.183594"/>
     <use xlink:href="#DejaVuSans-65" x="251.660156"/>
    </g>
   </g>
   <g id="text_11">
    <!-- LU-Net -->
    <g style="fill: #111318" transform="translate(522.740813 147.368656) scale(0.14 -0.14)">
     <use xlink:href="#DejaVuSans-4c"/>
     <use xlink:href="#DejaVuSans-55" x="50.712891"/>
     <use xlink:href="#DejaVuSans-2d" x="123.90625"/>
     <use xlink:href="#DejaVuSans-4e" x="159.990234"/>
     <use xlink:href="#DejaVuSans-65" x="234.794922"/>
     <use xlink:href="#DejaVuSans-74" x="296.318359"/>
    </g>
    <!-- + RA -->
    <g style="fill: #111318" transform="translate(528.765188 163.045594) scale(0.14 -0.14)">
     <use xlink:href="#DejaVuSans-2b"/>
     <use xlink:href="#DejaVuSans-20" x="83.789062"/>
     <use xlink:href="#DejaVuSans-52" x="115.576172"/>
     <use xlink:href="#DejaVuSans-41" x="181.058594"/>
    </g>
   </g>
   <g id="text_12">
    <!-- Coarse Mask -->
    <g style="fill: #111318" transform="translate(468.108 241.417587) scale(0.13 -0.13)">
     <defs>
      <path id="DejaVuSans-43" d="M 4122 4306 
L 4122 3641 
Q 3803 3938 3442 4084 
Q 3081 4231 2675 4231 
Q 1875 4231 1450 3742 
Q 1025 3253 1025 2328 
Q 1025 1406 1450 917 
Q 1875 428 2675 428 
Q 3081 428 3442 575 
Q 3803 722 4122 1019 
L 4122 359 
Q 3791 134 3420 21 
Q 3050 -91 2638 -91 
Q 1578 -91 968 557 
Q 359 1206 359 2328 
Q 359 3453 968 4101 
Q 1578 4750 2638 4750 
Q 3056 4750 3426 4639 
Q 3797 4528 4122 4306 
z
" transform="scale(0.015625)"/>
      <path id="DejaVuSans-72" d="M 2631 2963 
Q 2534 3019 2420 3045 
Q 2306 3072 2169 3072 
Q 1681 3072 1420 2755 
Q 1159 2438 1159 1844 
L 1159 0 
L 581 0 
L 581 3500 
L 1159 3500 
L 1159 2956 
Q 1341 3275 1631 3429 
Q 1922 3584 2338 3584 
Q 2397 3584 2469 3576 
Q 2541 3569 2628 3553 
L 2631 2963 
z
" transform="scale(0.015625)"/>
     </defs>
     <use xlink:href="#DejaVuSans-43"/>
     <use xlink:href="#DejaVuSans-6f" x="69.824219"/>
     <use xlink:href="#DejaVuSans-61" x="131.005859"/>
     <use xlink:href="#DejaVuSans-72" x="192.285156"/>
     <use xlink:href="#DejaVuSans-73" x="233.398438"/>
     <use xlink:href="#DejaVuSans-65" x="285.498047"/>
     <use xlink:href="#DejaVuSans-20" x="347.021484"/>
     <use xlink:href="#DejaVuSans-4d" x="378.808594"/>
     <use xlink:href="#DejaVuSans-61" x="465.087891"/>
     <use xlink:href="#DejaVuSans-73" x="526.367188"/>
     <use xlink:href="#DejaVuSans-6b" x="578.466797"/>
    </g>
   </g>
   <g id="text_13">
    <!-- Conditional Diffusion -->
    <g style="fill: #111318" transform="translate(522.825188 285.2301) scale(0.12 -0.12)">
     <defs>
      <path id="DejaVuSans-64" d="M 2906 2969 
L 2906 4863 
L 3481 4863 
L 3481 0 
L 2906 0 
L 2906 525 
Q 2725 213 2448 61 
Q 2172 -91 1784 -91 
Q 1150 -91 751 415 
Q 353 922 353 1747 
Q 353 2572 751 3078 
Q 1150 3584 1784 3584 
Q 2172 3584 2448 3432 
Q 2725 3281 2906 2969 
z
M 947 1747 
Q 947 1113 1208 752 
Q 1469 391 1925 391 
Q 2381 391 2643 752 
Q 2906 1113 2906 1747 
Q 2906 2381 2643 2742 
Q 2381 3103 1925 3103 
Q 1469 3103 1208 2742 
Q 947 2381 947 1747 
z
" transform="scale(0.015625)"/>
      <path id="DejaVuSans-44" d="M 1259 4147 
L 1259 519 
L 2022 519 
Q 2988 519 3436 956 
Q 3884 1394 3884 2338 
Q 3884 3275 3436 3711 
Q 2988 4147 2022 4147 
L 1259 4147 
z
M 628 4666 
L 1925 4666 
Q 3281 4666 3915 4102 
Q 4550 3538 4550 2338 
Q 4550 1131 3912 565 
Q 3275 0 1925 0 
L 628 0 
L 628 4666 
z
" transform="scale(0.015625)"/>
      <path id="DejaVuSans-66" d="M 2375 4863 
L 2375 4384 
L 1825 4384 
Q 1516 4384 1395 4259 
Q 1275 4134 1275 3809 
L 1275 3500 
L 2222 3500 
L 2222 3053 
L 1275 3053 
L 1275 0 
L 697 0 
L 697 3053 
L 147 3053 
L 147 3500 
L 697 3500 
L 697 3744 
Q 697 4328 969 4595 
Q 1241 4863 1831 4863 
L 2375 4863 
z
" transform="scale(0.015625)"/>
     </defs>
     <use xlink:href="#DejaVuSans-43"/>
     <use xlink:href="#DejaVuSans-6f" x="69.824219"/>
     <use xlink:href="#DejaVuSans-6e" x="131.005859"/>
     <use xlink:href="#DejaVuSans-64" x="194.384766"/>
     <use xlink:href="#DejaVuSans-69" x="257.861328"/>
     <use xlink:href="#DejaVuSans-74" x="285.644531"/>
     <use xlink:href="#DejaVuSans-69" x="324.853516"/>
     <use xlink:href="#DejaVuSans-6f" x="352.636719"/>
     <use xlink:href="#DejaVuSans-6e" x="413.818359"/>
     <use xlink:href="#DejaVuSans-61" x="477.197266"/>
     <use xlink:href="#DejaVuSans-6c" x="538.476562"/>
     <use xlink:href="#DejaVuSans-20" x="566.259766"/>
     <use xlink:href="#DejaVuSans-44" x="598.046875"/>
     <use xlink:href="#DejaVuSans-69" x="675.048828"/>
     <use xlink:href="#DejaVuSans-66" x="702.832031"/>
     <use xlink:href="#DejaVuSans-66" x="738.037109"/>
     <use xlink:href="#DejaVuSans-75" x="773.242188"/>
     <use xlink:href="#DejaVuSans-73" x="836.621094"/>
     <use xlink:href="#DejaVuSans-69" x="888.720703"/>
     <use xlink:href="#DejaVuSans-6f" x="916.503906"/>
     <use xlink:href="#DejaVuSans-6e" x="977.685547"/>
    </g>
    <!-- • Image Encoder -->
    <g style="fill: #111318" transform="translate(534.611438 298.667475) scale(0.12 -0.12)">
     <defs>
      <path id="DejaVuSans-2022" d="M 959 2381 
Q 959 2769 1229 3036 
Q 1500 3303 1894 3303 
Q 2281 3303 2548 3036 
Q 2816 2769 2816 2381 
Q 2816 1991 2547 1722 
Q 2278 1453 1888 1453 
Q 1497 1453 1228 1722 
Q 959 1991 959 2381 
z
" transform="scale(0.015625)"/>
      <path id="DejaVuSans-45" d="M 628 4666 
L 3578 4666 
L 3578 4134 
L 1259 4134 
L 1259 2753 
L 3481 2753 
L 3481 2222 
L 1259 2222 
L 1259 531 
L 3634 531 
L 3634 0 
L 628 0 
L 628 4666 
z
" transform="scale(0.015625)"/>
      <path id="DejaVuSans-63" d="M 3122 3366 
L 3122 2828 
Q 2878 2963 2633 3030 
Q 2388 3097 2138 3097 
Q 1578 3097 1268 2742 
Q 959 2388 959 1747 
Q 959 1106 1268 751 
Q 1578 397 2138 397 
Q 2388 397 2633 464 
Q 2878 531 3122 666 
L 3122 134 
Q 2881 22 2623 -34 
Q 2366 -91 2075 -91 
Q 1284 -91 818 406 
Q 353 903 353 1747 
Q 353 2603 823 3093 
Q 1294 3584 2113 3584 
Q 2378 3584 2631 3529 
Q 2884 3475 3122 3366 
z
" transform="scale(0.015625)"/>
     </defs>
     <use xlink:href="#DejaVuSans-2022"/>
     <use xlink:href="#DejaVuSans-20" x="58.984375"/>
     <use xlink:href="#DejaVuSans-49" x="90.771484"/>
     <use xlink:href="#DejaVuSans-6d" x="120.263672"/>
     <use xlink:href="#DejaVuSans-61" x="217.675781"/>
     <use xlink:href="#DejaVuSans-67" x="278.955078"/>
     <use xlink:href="#DejaVuSans-65" x="342.431641"/>
     <use xlink:href="#DejaVuSans-20" x="403.955078"/>
     <use xlink:href="#DejaVuSans-45" x="435.742188"/>
     <use xlink:href="#DejaVuSans-6e" x="498.925781"/>
     <use xlink:href="#DejaVuSans-63" x="562.304688"/>
     <use xlink:href="#DejaVuSans-6f" x="617.285156"/>
     <use xlink:href="#DejaVuSans-64" x="678.466797"/>
     <use xlink:href="#DejaVuSans-65" x="741.943359"/>
     <use xlink:href="#DejaVuSans-72" x="803.466797"/>
    </g>
    <!-- • Mask Encoder -->
    <g style="fill: #111318" transform="translate(537.949875 312.10485) scale(0.12 -0.12)">
     <use xlink:href="#DejaVuSans-2022"/>
     <use xlink:href="#DejaVuSans-20" x="58.984375"/>
     <use xlink:href="#DejaVuSans-4d" x="90.771484"/>
     <use xlink:href="#DejaVuSans-61" x="177.050781"/>
     <use xlink:href="#DejaVuSans-73" x="238.330078"/>
     <use xlink:href="#DejaVuSans-6b" x="290.429688"/>
     <use xlink:href="#DejaVuSans-20" x="348.339844"/>
     <use xlink:href="#DejaVuSans-45" x="380.126953"/>
     <use xlink:href="#DejaVuSans-6e" x="443.310547"/>
     <use xlink:href="#DejaVuSans-63" x="506.689453"/>
     <use xlink:href="#DejaVuSans-6f" x="561.669922"/>
     <use xlink:href="#DejaVuSans-64" x="622.851562"/>
     <use xlink:href="#DejaVuSans-65" x="686.328125"/>
     <use xlink:href="#DejaVuSans-72" x="747.851562"/>
    </g>
    <!-- • Diffusion U-Net -->
    <g style="fill: #111318" transform="translate(534.266438 325.542225) scale(0.12 -0.12)">
     <use xlink:href="#DejaVuSans-2022"/>
     <use xlink:href="#DejaVuSans-20" x="58.984375"/>
     <use xlink:href="#DejaVuSans-44" x="90.771484"/>
     <use xlink:href="#DejaVuSans-69" x="167.773438"/>
     <use xlink:href="#DejaVuSans-66" x="195.556641"/>
     <use xlink:href="#DejaVuSans-66" x="230.761719"/>
     <use xlink:href="#DejaVuSans-75" x="265.966797"/>
     <use xlink:href="#DejaVuSans-73" x="329.345703"/>
     <use xlink:href="#DejaVuSans-69" x="381.445312"/>
     <use xlink:href="#DejaVuSans-6f" x="409.228516"/>
     <use xlink:href="#DejaVuSans-6e" x="470.410156"/>
     <use xlink:href="#DejaVuSans-20" x="533.789062"/>
     <use xlink:href="#DejaVuSans-55" x="565.576172"/>
     <use xlink:href="#DejaVuSans-2d" x="638.769531"/>
     <use xlink:href="#DejaVuSans-4e" x="674.853516"/>
     <use xlink:href="#DejaVuSans-65" x="749.658203"/>
     <use xlink:href="#DejaVuSans-74" x="811.181641"/>
    </g>
    <!-- • DDIM Sampling -->
    <g style="fill: #111318" transform="translate(533.663625 338.9796) scale(0.12 -0.12)">
     <use xlink:href="#DejaVuSans-2022"/>
     <use xlink:href="#DejaVuSans-20" x="58.984375"/>
     <use xlink:href="#DejaVuSans-44" x="90.771484"/>
     <use xlink:href="#DejaVuSans-44" x="167.773438"/>
     <use xlink:href="#DejaVuSans-49" x="244.775391"/>
     <use xlink:href="#DejaVuSans-4d" x="274.267578"/>
     <use xlink:href="#DejaVuSans-20" x="360.546875"/>
     <use xlink:href="#DejaVuSans-53" x="392.333984"/>
     <use xlink:href="#DejaVuSans-61" x="455.810547"/>
     <use xlink:href="#DejaVuSans-6d" x="517.089844"/>
     <use xlink:href="#DejaVuSans-70" x="614.501953"/>
     <use xlink:href="#DejaVuSans-6c" x="677.978516"/>
     <use xlink:href="#DejaVuSans-69" x="705.761719"/>
     <use xlink:href="#DejaVuSans-6e" x="733.544922"/>
     <use xlink:href="#DejaVuSans-67" x="796.923828"/>
    </g>
   </g>
   <g id="text_14">
    <!-- Refined Segmentation -->
    <g style="fill: #111318" transform="translate(468.108 405.519987) scale(0.13 -0.13)">
     <use xlink:href="#DejaVuSans-52"/>
     <use xlink:href="#DejaVuSans-65" x="64.982422"/>
     <use xlink:href="#DejaVuSans-66" x="126.505859"/>
     <use xlink:href="#DejaVuSans-69" x="161.710938"/>
     <use xlink:href="#DejaVuSans-6e" x="189.494141"/>
     <use xlink:href="#DejaVuSans-65" x="252.873047"/>
     <use xlink:href="#DejaVuSans-64" x="314.396484"/>
     <use xlink:href="#DejaVuSans-20" x="377.873047"/>
     <use xlink:href="#DejaVuSans-53" x="409.660156"/>
     <use xlink:href="#DejaVuSans-65" x="473.136719"/>
     <use xlink:href="#DejaVuSans-67" x="534.660156"/>
     <use xlink:href="#DejaVuSans-6d" x="598.136719"/>
     <use xlink:href="#DejaVuSans-65" x="695.548828"/>
     <use xlink:href="#DejaVuSans-6e" x="757.072266"/>
     <use xlink:href="#DejaVuSans-74" x="820.451172"/>
     <use xlink:href="#DejaVuSans-61" x="859.660156"/>
     <use xlink:href="#DejaVuSans-74" x="920.939453"/>
     <use xlink:href="#DejaVuSans-69" x="960.148438"/>
     <use xlink:href="#DejaVuSans-6f" x="987.931641"/>
     <use xlink:href="#DejaVuSans-6e" x="1049.113281"/>
    </g>
   </g>
   <g id="text_15">
    <!-- (40–100 ms, tunable) -->
    <g style="fill: #111318" transform="translate(468.108 423.260787) scale(0.13 -0.13)">
     <defs>
      <path id="DejaVuSans-30" d="M 2034 4250 
Q 1547 4250 1301 3770 
Q 1056 3291 1056 2328 
Q 1056 1369 1301 889 
Q 1547 409 2034 409 
Q 2525 409 2770 889 
Q 3016 1369 3016 2328 
Q 3016 3291 2770 3770 
Q 2525 4250 2034 4250 
z
M 2034 4750 
Q 2819 4750 3233 4129 
Q 3647 3509 3647 2328 
Q 3647 1150 3233 529 
Q 2819 -91 2034 -91 
Q 1250 -91 836 529 
Q 422 1150 422 2328 
Q 422 3509 836 4129 
Q 1250 4750 2034 4750 
z
" transform="scale(0.015625)"/>
      <path id="DejaVuSans-2013" d="M 313 1978 
L 2888 1978 
L 2888 1528 
L 313 1528 
L 313 1978 
z
" transform="scale(0.015625)"/>
      <path id="DejaVuSans-31" d="M 794 531 
L 1825 531 
L 1825 4091 
L 703 3866 
L 703 4441 
L 1819 4666 
L 2450 4666 
L 2450 531 
L 3481 531 
L 3481 0 
L 794 0 
L 794 531 
z
" transform="scale(0.015625)"/>
      <path id="DejaVuSans-2c" d="M 750 794 
L 1409 794 
L 1409 256 
L 897 -744 
L 494 -744 
L 750 256 
L 750 794 
z
" transform="scale(0.015625)"/>
      <path id="DejaVuSans-62" d="M 3116 1747 
Q 3116 2381 2855 2742 
Q 2594 3103 2138 3103 
Q 1681 3103 1420 2742 
Q 1159 2381 1159 1747 
Q 1159 1113 1420 752 
Q 1681 391 2138 391 
Q 2594 391 2855 752 
Q 3116 1113 3116 1747 
z
M 1159 2969 
Q 1341 3281 1617 3432 
Q 1894 3584 2278 3584 
Q 2916 3584 3314 3078 
Q 3713 2572 3713 1747 
Q 3713 922 3314 415 
Q 2916 -91 2278 -91 
Q 1894 -91 1617 61 
Q 1341 213 1159 525 
L 1159 0 
L 581 0 
L 581 4863 
L 1159 4863 
L 1159 2969 
z
" transform="scale(0.015625)"/>
     </defs>
     <use xlink:href="#DejaVuSans-28"/>
     <use xlink:href="#DejaVuSans-34" x="39.013672"/>
     <use xlink:href="#DejaVuSans-30" x="102.636719"/>
     <use xlink:href="#DejaVuSans-2013" x="166.259766"/>
     <use xlink:href="#DejaVuSans-31" x="216.259766"/>
     <use xlink:href="#DejaVuSans-30" x="279.882812"/>
     <use xlink:href="#DejaVuSans-30" x="343.505859"/>
     <use xlink:href="#DejaVuSans-20" x="407.128906"/>
     <use xlink:href="#DejaVuSans-6d" x="438.916016"/>
     <use xlink:href="#DejaVuSans-73" x="536.328125"/>
     <use xlink:href="#DejaVuSans-2c" x="588.427734"/>
     <use xlink:href="#DejaVuSans-20" x="620.214844"/>
     <use xlink:href="#DejaVuSans-74" x="652.001953"/>
     <use xlink:href="#DejaVuSans-75" x="691.210938"/>
     <use xlink:href="#DejaVuSans-6e" x="754.589844"/>
     <use xlink:href="#DejaVuSans-61" x="817.96875"/>
     <use xlink:href="#DejaVuSans-62" x="879.248047"/>
     <use xlink:href="#DejaVuSans-6c" x="942.724609"/>
     <use xlink:href="#DejaVuSans-65" x="970.507812"/>
     <use xlink:href="#DejaVuSans-29" x="1032.03125"/>
    </g>
   </g>
  </g>
 </g>
 <defs>
  <clipPath id="p0c63dbd5fa">
   <rect x="7.2" y="7.2" width="781.2" height="443.52"/>
  </clipPath>
 </defs>
</svg>
